<svg width="27" height="22" viewBox="0 0 27 22" fill="none" xmlns="http://www.w3.org/2000/svg">
<path d="M26.1017 3.31084C25.5627 2.7462 24.8184 2.41255 23.9715 2.41255H19.711V2.36122C19.711 1.71958 19.4544 1.10361 19.0181 0.692966C18.5817 0.256654 17.9914 0 17.3498 0H9.65019C8.98289 0 8.39259 0.256654 7.95627 0.692966C7.51996 1.12928 7.26331 1.71958 7.26331 2.36122V2.41255H3.02852C2.18156 2.41255 1.43726 2.7462 0.898289 3.31084C0.359316 3.84981 0 4.61977 0 5.44106V18.2224C0 19.0694 0.33365 19.8137 0.898289 20.3527C1.43726 20.8916 2.20722 21.251 3.02852 21.251H23.9715C24.8184 21.251 25.5627 20.9173 26.1017 20.3527C26.6407 19.8137 27 19.0437 27 18.2224V5.44106C27 4.59411 26.6663 3.84981 26.1017 3.31084ZM25.6654 18.2224H25.6397C25.6397 18.6844 25.4601 19.0951 25.1521 19.403C24.8441 19.711 24.4335 19.8907 23.9715 19.8907H3.02852C2.56654 19.8907 2.15589 19.711 1.84791 19.403C1.53992 19.0951 1.36027 18.6844 1.36027 18.2224V5.44106C1.36027 4.97909 1.53992 4.56844 1.84791 4.26046C2.15589 3.95247 2.56654 3.77281 3.02852 3.77281H7.98194C8.36692 3.77281 8.6749 3.46483 8.6749 3.07985V2.33555C8.6749 2.05323 8.77757 1.79658 8.95722 1.61692C9.13688 1.43726 9.39354 1.3346 9.67586 1.3346H17.3498C17.6321 1.3346 17.8888 1.43726 18.0684 1.61692C18.2481 1.79658 18.3508 2.05323 18.3508 2.33555V3.07985C18.3508 3.46483 18.6587 3.77281 19.0437 3.77281H23.9971C24.4591 3.77281 24.8698 3.95247 25.1778 4.26046C25.4857 4.56844 25.6654 4.97909 25.6654 5.44106V18.2224Z" fill="#1B1C1E"/>
<path d="M13.5002 5.51807C11.755 5.51807 10.1637 6.2367 9.03443 7.36598C7.87949 8.52092 7.18652 10.0865 7.18652 11.8318C7.18652 13.577 7.90515 15.1683 9.03443 16.2975C10.1894 17.4525 11.755 18.1454 13.5002 18.1454C15.2455 18.1454 16.8367 17.4268 17.966 16.2975C19.1209 15.1426 19.8139 13.577 19.8139 11.8318C19.8139 10.0865 19.0953 8.49525 17.966 7.36598C16.8367 6.2367 15.2455 5.51807 13.5002 5.51807ZM16.9907 15.3479C16.0924 16.2205 14.8605 16.7852 13.5002 16.7852C12.1399 16.7852 10.908 16.2205 10.0097 15.3479C9.11143 14.4496 8.57246 13.2177 8.57246 11.8574C8.57246 10.4972 9.13709 9.26521 10.0097 8.36693C10.908 7.46864 12.1399 6.92966 13.5002 6.92966C14.8605 6.92966 16.0924 7.4943 16.9907 8.36693C17.889 9.26521 18.428 10.4972 18.428 11.8574C18.4536 13.2177 17.889 14.4496 16.9907 15.3479Z" fill="#1B1C1E"/>
<path d="M22.6365 8.00758C23.3311 8.00758 23.8941 7.44453 23.8941 6.74998C23.8941 6.05542 23.3311 5.49237 22.6365 5.49237C21.942 5.49237 21.3789 6.05542 21.3789 6.74998C21.3789 7.44453 21.942 8.00758 22.6365 8.00758Z" fill="#1B1C1E"/>
</svg>
