<svg width="30" height="30" viewBox="0 0 30 30" fill="none" xmlns="http://www.w3.org/2000/svg">
<path d="M29.994 16.1447C29.9582 15.3138 29.1452 14.6504 27.5732 14.1722C26.3539 13.8076 24.8057 13.5864 23.1321 13.5505V7.17277C23.1261 7.06518 23.0962 6.96356 23.0424 6.8739C22.8751 6.15065 22.0681 5.56488 20.6396 5.13451C19.2947 4.72806 17.5374 4.5069 15.6904 4.5069C13.8494 4.5069 12.11 4.72806 10.789 5.13451C9.70711 5.46924 8.41004 6.09088 8.41004 7.16081C8.41004 7.22656 8.41602 7.29231 8.42797 7.35806L8.49372 10.0837C4.60849 9.34252 0.860729 11.8948 0.125523 15.7741C0.041841 16.2164 0 16.6587 0 17.107C0 21.052 3.2098 24.2618 7.15481 24.2618C8.79857 24.2618 10.3885 23.7 11.6617 22.6599C12.7794 22.9229 14.0944 23.0664 15.4871 23.0783C15.792 24.734 19.3784 25.4932 22.7197 25.4932C24.5607 25.4932 26.3001 25.266 27.621 24.8536C28.7029 24.5189 30 23.8912 30 22.8213V16.2582C30 16.2224 30 16.1805 29.994 16.1447ZM21.8828 10.4782C21.8828 10.5559 21.5959 10.9683 20.2989 11.3628C19.0855 11.7275 17.4059 11.9426 15.6964 11.9426C14.22 11.9426 12.7735 11.7872 11.6258 11.4943C11.6079 11.4884 11.5959 11.4884 11.578 11.4824C11.0102 11.0341 10.3825 10.6755 9.70711 10.4244L9.66527 8.73882C10.0777 8.94802 10.5081 9.11539 10.9564 9.23493C12.2534 9.6115 13.9331 9.81473 15.6964 9.81473C17.5374 9.81473 19.3007 9.59357 20.6455 9.18711C21.0938 9.05561 21.5302 8.88227 21.9426 8.66709V10.2331C21.8769 10.3168 21.8828 10.3945 21.8828 10.4782ZM11.1476 6.28813C12.3551 5.91754 13.9689 5.70833 15.6904 5.70833C17.3999 5.70833 19.0795 5.91754 20.2929 6.28813C21.59 6.68263 21.8769 7.08909 21.8769 7.16679C21.8769 7.25047 21.584 7.66291 20.2869 8.05143C19.0735 8.41604 17.3999 8.62525 15.6904 8.62525C14.0406 8.62525 12.4746 8.43398 11.2851 8.08729C10 7.7167 9.64136 7.31025 9.61148 7.17874C9.61148 7.16679 9.6055 7.16679 9.6055 7.16679C9.61148 7.05322 9.88643 6.67068 11.1476 6.28813ZM11.1656 21.5183C8.73282 23.7299 4.96115 23.5565 2.74955 21.1238C0.537956 18.691 0.711297 14.9193 3.14405 12.7077C4.2379 11.7095 5.67244 11.1596 7.15481 11.1596C7.75254 11.1596 8.34429 11.2493 8.91811 11.4226C10.9922 12.0682 12.5523 13.7896 12.9946 15.9116C13.0723 16.3061 13.1142 16.7125 13.1142 17.113C13.1201 18.7926 12.4088 20.3886 11.1656 21.5183ZM12.6838 21.6498C13.168 21.058 13.5565 20.3945 13.8314 19.6832C14.3395 19.7251 14.8655 19.755 15.4154 19.7609V19.8685L15.4513 21.8948C14.5248 21.8829 13.5983 21.7992 12.6838 21.6498ZM14.2797 16.4017C14.6264 16.4256 14.991 16.4376 15.3616 16.4435L15.3975 18.5595C14.9791 18.5535 14.5666 18.5356 14.1721 18.5057C14.2618 18.0455 14.3096 17.5733 14.3096 17.107C14.3096 16.8739 14.2977 16.6408 14.2797 16.4017ZM15.7501 15.2541C15.7322 15.2541 15.7083 15.2541 15.6904 15.2541C15.1166 15.2541 14.5607 15.2302 14.0466 15.1943C13.8195 14.3933 13.4608 13.6402 12.9767 12.9707C13.8733 13.0843 14.7759 13.1441 15.6844 13.1441C17.5314 13.1441 19.2947 12.9229 20.6396 12.5165C21.0879 12.385 21.5182 12.2116 21.9307 12.0024V13.5685C19.3664 13.6402 16.7304 14.1781 15.7501 15.2541ZM16.5392 16.2045C16.5392 16.1985 16.5392 16.1925 16.5451 16.1805C16.5989 16.0192 17.0233 15.6247 18.2606 15.278C19.4202 14.9492 20.9325 14.7699 22.5224 14.7699H22.624C24.3335 14.7699 26.0072 14.9672 27.2265 15.3377C28.4997 15.7203 28.7986 16.1148 28.8045 16.2045V16.2104C28.7986 16.3001 28.4997 16.7125 27.1727 17.107C25.9474 17.4716 24.3335 17.6689 22.63 17.6689C20.9803 17.6689 19.4142 17.4776 18.2247 17.1369C16.9396 16.7663 16.587 16.3539 16.5511 16.2284C16.5392 16.2045 16.5392 16.2045 16.5392 16.2045ZM27.2744 23.7179C26.0669 24.0945 24.4471 24.3037 22.7256 24.3037C20.9982 24.3037 19.3843 24.1005 18.1889 23.7358C16.9277 23.3473 16.6647 22.9468 16.6647 22.8572C16.6647 22.8512 16.6647 22.8512 16.6647 22.8452L16.6348 21.1118C17.113 21.3449 17.6091 21.5242 18.1231 21.6557C19.3784 21.9845 20.9743 22.1698 22.6121 22.1698C24.4591 22.1698 26.2104 21.9486 27.5493 21.5422C27.9857 21.4107 28.4041 21.2373 28.8045 21.0341V22.8273H28.8105C28.8105 22.911 28.5356 23.3234 27.2744 23.7179ZM28.8165 19.3186H28.8105C28.8105 19.3784 28.7747 19.4501 28.7747 19.5159C28.7747 19.5996 28.4937 20.006 27.2026 20.4005C25.9773 20.7711 24.3455 20.9743 22.6181 20.9743C19.3066 20.9743 17.0771 20.2272 16.6109 19.6474L16.6049 19.1453L16.581 17.7705C16.9994 17.9797 17.4357 18.1471 17.884 18.2726C19.1811 18.6492 20.8607 18.8524 22.624 18.8524C24.4411 18.8524 26.1745 18.6372 27.5075 18.2427C27.9617 18.1172 28.3981 17.9438 28.8165 17.7287V19.3186Z" fill="#CEA100"/>
<path d="M9.33054 17.9558C9.05559 16.9815 8.16497 16.312 7.15481 16.312C6.56903 16.312 6.09085 15.8398 6.09085 15.254C6.09683 14.6623 6.56903 14.1901 7.15481 14.1901C7.74058 14.1901 8.21877 14.6683 8.21877 15.254C8.21877 15.5828 8.48774 15.8518 8.8165 15.8518C9.14525 15.8518 9.41423 15.5828 9.41423 15.254C9.41423 14.2439 8.74477 13.3533 7.77047 13.0783V12.8093C7.77047 12.4806 7.50149 12.2116 7.17274 12.2116C6.84399 12.2116 6.57501 12.4806 6.57501 12.8093V13.0664C5.37357 13.3891 4.6563 14.6264 4.97907 15.8279C5.24207 16.8141 6.13269 17.5015 7.15481 17.5015C7.74058 17.5015 8.21877 17.9737 8.21877 18.5595C8.21877 19.1453 7.74656 19.6234 7.16079 19.6234C6.57501 19.6234 6.09683 19.1512 6.09683 18.5655C6.09683 18.2367 5.82785 17.9677 5.4991 17.9677C5.17035 17.9677 4.90137 18.2367 4.90137 18.5655C4.90734 19.5876 5.58876 20.4782 6.57501 20.7472V21.2672C6.57501 21.5959 6.84399 21.8649 7.17274 21.8649C7.50149 21.8649 7.77047 21.5959 7.77047 21.2672V20.7412C8.97191 20.4005 9.67125 19.1572 9.33054 17.9558Z" fill="#CEA100"/>
</svg>
