<svg width="24" height="24" viewBox="0 0 24 24" fill="none" xmlns="http://www.w3.org/2000/svg">
<g clip-path="url(#clip0)">
<path d="M12.0002 12.3869C12.6403 12.3869 13.1614 11.8658 13.1614 11.2256C13.1614 10.5854 12.6403 10.0643 12.0002 10.0643C11.36 10.0643 10.8389 10.5854 10.8389 11.2256C10.8389 11.8658 11.36 12.3869 12.0002 12.3869ZM12.0002 10.8385C12.2134 10.8385 12.3873 11.012 12.3873 11.2256C12.3873 11.4392 12.2134 11.6127 12.0002 11.6127C11.787 11.6127 11.6131 11.4392 11.6131 11.2256C11.6131 11.012 11.787 10.8385 12.0002 10.8385Z" fill="#1B1C1E"/>
<path d="M11.1993 8.54479C11.229 8.96269 11.5809 9.29025 12.0002 9.29025C12.4194 9.29025 12.7713 8.96269 12.801 8.54479L13.1584 3.5388C13.1607 3.51158 13.1614 3.48418 13.1614 3.45715C13.1614 2.83114 12.6524 2.32251 12.0268 2.32251H11.9735C11.3479 2.32251 10.8389 2.83114 10.8389 3.45715C10.8389 3.48418 10.8396 3.51215 10.8415 3.53805L11.1993 8.54479ZM11.9735 3.0967H12.0268C12.2258 3.0967 12.3873 3.2585 12.3865 3.48267L12.0289 8.48979C12.0268 8.51908 11.9735 8.51908 11.9718 8.48979L11.6131 3.45715C11.6131 3.2585 11.7745 3.0967 11.9735 3.0967Z" fill="#1B1C1E"/>
<path d="M22.8387 10.4516H18.6264L14.0268 1.25258C13.6404 0.480091 12.8636 0 12 0C11.1364 0 10.3596 0.480091 9.97322 1.25258L5.37361 10.4516H1.16129C0.521106 10.4516 0 10.9727 0 11.6129V17.0323C0 17.6724 0.521106 18.1935 1.16129 18.1935H2.34772L2.6834 23.2258H1.54839V24H22.4516V23.2258H21.317L21.6527 18.1935H22.8387C23.4789 18.1935 24 17.6724 24 17.0323V11.6129C24 10.9727 23.4789 10.4516 22.8387 10.4516ZM23.2258 11.6129V13.5677L20.9953 11.2258H22.8387C23.0519 11.2258 23.2258 11.3993 23.2258 11.6129ZM10.6658 1.59904C10.92 1.09003 11.4313 0.774194 12 0.774194C12.5687 0.774194 13.08 1.09003 13.3342 1.59904L18.0359 11.002C18.1389 11.208 18.1935 11.439 18.1935 11.6694C18.1935 12.492 17.5243 13.1613 16.7017 13.1613H7.29832C6.47574 13.1613 5.80645 12.492 5.80645 11.6694C5.80645 11.439 5.86108 11.2084 5.96409 11.002L10.6658 1.59904ZM17.7511 17.4194L14.433 13.9355H16.7017C17.0636 13.9355 17.4046 13.848 17.7082 13.6966L21.2535 17.4194H17.7511ZM17.8316 18.1935L18.1673 23.2258H5.8331L6.16879 18.1935H17.8316ZM7.29832 13.9355H8.79284L12.1108 17.4194H8.60818L2.70968 11.2258H5.07989C5.0504 11.3721 5.03226 11.5205 5.03226 11.6694C5.03226 12.919 6.04876 13.9355 7.29832 13.9355ZM13.3641 13.9355L16.6824 17.4194H13.1798L9.86208 13.9355H13.3641ZM1.16129 11.2258H1.64044L7.53913 17.4194H4.03673L0.774194 13.9935V11.6129C0.774194 11.3993 0.948085 11.2258 1.16129 11.2258ZM0.774194 17.0323V15.1161L2.96787 17.4194H1.16129C0.948085 17.4194 0.774194 17.2458 0.774194 17.0323ZM3.12342 18.1935H5.39308L5.0574 23.2258H3.45873L3.12342 18.1935ZM20.5413 23.2258H18.943L18.6073 18.1935H20.877L20.5413 23.2258ZM22.8387 17.4194H22.3227L18.3368 13.2344C18.7266 12.8273 18.9677 12.2763 18.9677 11.6694C18.9677 11.5205 18.9496 11.3721 18.9205 11.2258H19.9266L23.2258 14.6904V17.0323C23.2258 17.2458 23.0519 17.4194 22.8387 17.4194Z" fill="#1B1C1E"/>
</g>
<defs>
<clipPath id="clip0">
<rect width="24" height="24" fill="white"/>
</clipPath>
</defs>
</svg>
