<svg width="24" height="24" viewBox="0 0 24 24" fill="none" xmlns="http://www.w3.org/2000/svg">
<g clip-path="url(#clip0)">
<path d="M10 24C4.5 24 0 19.5 0 14C0 8.5 4.5 4 10 4C15.5 4 20 8.5 20 14C20 19.5 15.5 24 10 24ZM10 5C5 5 1 9 1 14C1 19 5 23 10 23C15 23 19 19 19 14C19 9 15 5 10 5Z" fill="#FDFDFD"/>
<path d="M10 20.5C6.4 20.5 3.5 17.6 3.5 14C3.5 10.4 6.4 7.5 10 7.5C13.6 7.5 16.5 10.4 16.5 14C16.5 17.6 13.6 20.5 10 20.5ZM10 8.5C7 8.5 4.5 11 4.5 14C4.5 17 7 19.5 10 19.5C13 19.5 15.5 17 15.5 14C15.5 11 13 8.5 10 8.5Z" fill="#FDFDFD"/>
<path d="M9.99951 17C8.29951 17 6.99951 15.7 6.99951 14C6.99951 12.3 8.29951 11 9.99951 11C11.6995 11 12.9995 12.3 12.9995 14C12.9995 15.7 11.6995 17 9.99951 17ZM9.99951 12C8.89951 12 7.99951 12.9 7.99951 14C7.99951 15.1 8.89951 16 9.99951 16C11.0995 16 11.9995 15.1 11.9995 14C11.9995 12.9 11.0995 12 9.99951 12Z" fill="#FDFDFD"/>
<path d="M9.99971 14.4999C9.89971 14.4999 9.69971 14.4999 9.59971 14.3999C9.39971 14.1999 9.39971 13.8999 9.59971 13.6999L17.0997 6.19993C17.2997 5.99993 17.5997 5.99993 17.7997 6.19993C17.9997 6.39993 17.9997 6.69993 17.7997 6.89993L10.2997 14.3999C10.2997 14.4999 10.0997 14.4999 9.99971 14.4999Z" fill="#FDFDFD"/>
<path d="M20 7H17.5C17.2 7 17 6.8 17 6.5V4C17 3.9 17.1 3.7 17.1 3.6L20.6 0.1C20.8 0 21 0 21.2 0C21.4 0.1 21.5 0.3 21.5 0.5V2.5H23.5C23.7 2.5 23.9 2.6 24 2.8C24 3 24 3.2 23.9 3.4L20.4 6.9C20.3 6.9 20.1 7 20 7ZM18 6H19.8L22.3 3.5H21C20.7 3.5 20.5 3.3 20.5 3V1.7L18 4.2V6Z" fill="#FDFDFD"/>
</g>
<defs>
<clipPath id="clip0">
<rect width="24" height="24" fill="white"/>
</clipPath>
</defs>
</svg>
