<svg width="24" height="24" viewBox="0 0 24 24" fill="none" xmlns="http://www.w3.org/2000/svg">
<g clip-path="url(#clip0)">
<path d="M10 24C4.5 24 0 19.5 0 14C0 8.5 4.5 4 10 4C15.5 4 20 8.5 20 14C20 19.5 15.5 24 10 24ZM10 5C5 5 1 9 1 14C1 19 5 23 10 23C15 23 19 19 19 14C19 9 15 5 10 5Z" fill="#1B1C1E"/>
<path d="M10 20.5C6.4 20.5 3.5 17.6 3.5 14C3.5 10.4 6.4 7.5 10 7.5C13.6 7.5 16.5 10.4 16.5 14C16.5 17.6 13.6 20.5 10 20.5ZM10 8.5C7 8.5 4.5 11 4.5 14C4.5 17 7 19.5 10 19.5C13 19.5 15.5 17 15.5 14C15.5 11 13 8.5 10 8.5Z" fill="#1B1C1E"/>
<path d="M10 17C8.3 17 7 15.7 7 14C7 12.3 8.3 11 10 11C11.7 11 13 12.3 13 14C13 15.7 11.7 17 10 17ZM10 12C8.9 12 8 12.9 8 14C8 15.1 8.9 16 10 16C11.1 16 12 15.1 12 14C12 12.9 11.1 12 10 12Z" fill="#1B1C1E"/>
<path d="M10.0002 14.5C9.9002 14.5 9.7002 14.5 9.6002 14.4C9.4002 14.2 9.4002 13.9 9.6002 13.7L17.1002 6.19999C17.3002 5.99999 17.6002 5.99999 17.8002 6.19999C18.0002 6.39999 18.0002 6.69999 17.8002 6.89999L10.3002 14.4C10.3002 14.5 10.1002 14.5 10.0002 14.5Z" fill="#1B1C1E"/>
<path d="M20 7H17.5C17.2 7 17 6.8 17 6.5V4C17 3.9 17.1 3.7 17.1 3.6L20.6 0.1C20.8 0 21 0 21.2 0C21.4 0.1 21.5 0.3 21.5 0.5V2.5H23.5C23.7 2.5 23.9 2.6 24 2.8C24 3 24 3.2 23.9 3.4L20.4 6.9C20.3 6.9 20.1 7 20 7ZM18 6H19.8L22.3 3.5H21C20.7 3.5 20.5 3.3 20.5 3V1.7L18 4.2V6Z" fill="#1B1C1E"/>
</g>
<defs>
<clipPath id="clip0">
<rect width="24" height="24" fill="white"/>
</clipPath>
</defs>
</svg>
