<svg width="24" height="24" viewBox="0 0 24 24" fill="none" xmlns="http://www.w3.org/2000/svg">
<path d="M23.6 6.4H21.0576C22.6056 5.1547 22.8509 2.89035 21.6056 1.3424C20.9221 0.492851 19.8903 -0.000848881 18.8 1.11872e-06H15.2928C13.8667 0.000501119 12.5753 0.842751 12 2.1476C11.4247 0.842751 10.1333 0.000501119 8.7072 1.11872e-06H5.2C3.2133 -0.00154888 1.60155 1.60775 1.6 3.5944C1.59915 4.6847 2.09285 5.71655 2.9424 6.4H0.4C0.1791 6.4 0 6.5791 0 6.8V10.8C0 11.0209 0.1791 11.2 0.4 11.2H1.2V23.6C1.2 23.8209 1.3791 24 1.6 24H22.4C22.6209 24 22.8 23.8209 22.8 23.6V11.2H23.6C23.8209 11.2 24 11.0209 24 10.8V6.8C24 6.5791 23.8209 6.4 23.6 6.4ZM18.0908 0.833201C18.1232 0.828401 18.1552 0.822001 18.1876 0.818001C18.2889 0.806401 18.3908 0.800401 18.4928 0.800001H18.8C20.3456 0.801751 21.5982 2.05435 21.6 3.6C21.5982 5.14565 20.3456 6.39825 18.8 6.4H17.8604C19.4068 5.15385 19.6502 2.89005 18.4041 1.34365C18.2631 1.16865 18.106 1.0073 17.9348 0.861601C17.9864 0.850801 18.0384 0.841201 18.0908 0.833201ZM17.0528 1.2172C18.3726 2.01595 18.7949 3.73335 17.9961 5.0531C17.4889 5.8912 16.5797 6.4023 15.6 6.4H14.2116L15.9276 2.4776C16.1635 1.95135 16.5566 1.51105 17.0528 1.2172ZM14.2212 7.2H16.9528L18.842 10.9788L20.1528 13.6H18.8C18.6741 13.6 18.5556 13.6593 18.48 13.76L17.6848 14.82L15.7828 10.636L14.2212 7.2ZM14.7972 10.4H14V8.6464L14.7972 10.4ZM6.9472 1.2172C7.4434 1.51105 7.8365 1.95135 8.0724 2.4776L9.7884 6.4H8.4C6.85735 6.4036 5.6039 5.15595 5.6003 3.6133C5.598 2.6337 6.1091 1.72445 6.9472 1.2172ZM9.7788 7.2L8.2188 10.6344L6.3152 14.82L5.52 13.76C5.44445 13.6593 5.3259 13.6 5.2 13.6H3.8472L5.16 10.9788L7.0472 7.2H9.7788ZM2.4 3.6C2.40175 2.05435 3.65435 0.801751 5.2 0.800001H5.5072C5.6092 0.800401 5.7111 0.806401 5.8124 0.818001C5.8448 0.822001 5.8768 0.828401 5.9092 0.833201C5.9616 0.841201 6.0136 0.850801 6.0652 0.861601C4.55285 2.14885 4.37035 4.4184 5.65755 5.93075C5.8032 6.1019 5.9646 6.259 6.1396 6.4H5.2C3.65435 6.39825 2.40175 5.14565 2.4 3.6ZM0.8 10.4V7.2H6.1528L4.5528 10.4H0.8ZM10 23.2H2V11.2H4.1528L2.842 13.8212C2.74325 14.0188 2.8234 14.2591 3.021 14.3578C3.0766 14.3856 3.13785 14.4 3.2 14.4H5L6.08 15.84C6.15555 15.9407 6.2741 16 6.4 16C6.41445 16 6.42885 15.9992 6.4432 15.9976C6.5833 15.982 6.70485 15.8939 6.7632 15.7656L8.84 11.2H10V23.2ZM10 10.4H9.2028L10 8.6464V10.4ZM8.8052 2.1572C8.5723 1.62715 8.2143 1.16145 7.762 0.800001H8.7072C9.8196 0.800001 10.8265 1.4585 11.2724 2.4776L11.5632 3.1428L10.4 5.802L8.8052 2.1572ZM13.2 23.2H10.8V7.2H13.2V23.2ZM11.0116 6.4L12.7276 2.4776C13.1735 1.4585 14.1804 0.800001 15.2928 0.800001H16.24C15.7877 1.16145 15.4297 1.62715 15.1968 2.1572L13.3384 6.4H11.0116ZM22 23.2H14V11.2H15.16L17.236 15.7656C17.2943 15.8939 17.4159 15.982 17.556 15.9976C17.5706 15.9993 17.5853 16.0001 17.6 16C17.7259 16 17.8444 15.9407 17.92 15.84L19 14.4H20.8C21.0209 14.4012 21.201 14.2231 21.2022 14.0022C21.2026 13.9394 21.1881 13.8774 21.16 13.8212L19.8472 11.2H22V23.2ZM23.2 10.4H19.4472L17.8472 7.2H23.2V10.4Z" fill="#1B1C1E"/>
</svg>
