<svg width="27" height="27" viewBox="0 0 27 27" fill="none" xmlns="http://www.w3.org/2000/svg">
<g clip-path="url(#clip0)">
<path d="M2.63672 15.1399C2.34565 15.1399 2.10938 15.3762 2.10938 15.6672C2.10938 15.9583 2.34565 16.1946 2.63672 16.1946C2.92779 16.1946 3.16406 15.9583 3.16406 15.6672C3.16406 15.3762 2.92779 15.1399 2.63672 15.1399Z" fill="#1B1C1E"/>
<path d="M24.2377 16.9686L19.2662 18.6777C19.2883 18.5553 19.3006 18.4305 19.3006 18.3038C19.3006 17.1408 18.3545 16.1944 17.1912 16.1944H13.7763C13.6856 16.1944 13.5962 16.1712 13.5173 16.1267L10.7313 14.5597C10.1804 14.2492 9.55441 14.0851 8.92098 14.0851H5.1826C4.96507 13.4714 4.37882 13.0306 3.69141 13.0306H0.527345C0.236069 13.0306 0 13.2666 0 13.5579V23.0499C0 23.3412 0.236069 23.5773 0.527345 23.5773H3.69141C4.36316 23.5773 4.93912 23.1552 5.16777 22.5623C5.76474 22.6365 6.45544 22.813 6.88947 23.0734L9.64732 24.7282C10.6921 25.3552 11.8883 25.6866 13.107 25.6866C14.0727 25.6866 15.0083 25.4839 15.8881 25.0843L25.7307 20.7504C26.8208 20.3081 27.3591 19.0003 26.736 17.8475C26.2776 16.9993 25.2042 16.6219 24.2377 16.9686ZM4.21876 21.9977C4.21752 22.2873 3.98125 22.5226 3.69141 22.5226H1.05469V14.0853H3.69141C3.98207 14.0853 4.21876 14.3217 4.21876 14.6126V21.9977ZM25.3301 19.775C25.3245 19.7771 25.3189 19.7796 25.3134 19.7818C25.3134 19.7818 15.4561 24.1221 15.4543 24.1229C14.7117 24.4608 13.9219 24.632 13.107 24.632C12.0795 24.632 11.0709 24.3526 10.1901 23.8238L7.43206 22.1691C6.84168 21.815 5.99628 21.5991 5.27345 21.5126V15.14H8.92098C9.37335 15.14 9.82035 15.257 10.214 15.4788L13.0001 17.0458C13.2361 17.1789 13.5048 17.2493 13.7763 17.2493H17.1912C17.7728 17.2493 18.2459 17.7223 18.2459 18.304C18.2459 18.8835 17.7725 19.3587 17.1912 19.3587H11.8304C11.5392 19.3587 11.3031 19.5948 11.3031 19.8861C11.3031 20.1771 11.5392 20.4132 11.8304 20.4132H17.1912C17.5371 20.4132 17.8776 20.3273 18.1798 20.1662C18.1798 20.1662 24.5893 17.9629 24.5918 17.9621C25.0643 17.7915 25.5987 17.9613 25.8082 18.3489C26.1223 18.93 25.8626 19.5618 25.3301 19.775Z" fill="#1B1C1E"/>
<path d="M15.3585 14.1094C15.4577 14.1953 15.5807 14.2382 15.7039 14.2382C15.8271 14.2382 15.9503 14.1953 16.0494 14.1094C20.352 10.3805 23.0134 8.4934 23.0134 5.56087C23.0134 3.24096 21.371 1.31842 19.0637 1.31842C17.5484 1.31842 16.388 2.19184 15.6407 3.50258C14.895 2.19472 13.7358 1.31842 12.2183 1.31842C10.4519 1.31842 8.97512 2.46313 8.45602 4.23447C8.37403 4.51401 8.5343 4.80693 8.81383 4.88892C9.09336 4.9709 9.38629 4.81064 9.46807 4.5311C9.85224 3.22016 10.9317 2.37311 12.2183 2.37311C13.7227 2.37311 14.778 3.70898 15.1325 4.95277C15.1957 5.18122 15.4038 5.33942 15.6407 5.33942C15.8778 5.33942 16.0856 5.18122 16.1489 4.95277C16.1561 4.92702 16.8886 2.37311 19.0637 2.37311C20.7141 2.37311 21.9587 3.74338 21.9587 5.56087C21.9587 7.90673 19.6656 9.59794 15.7035 13.0141C13.2895 10.941 11.3719 9.48176 10.2819 8.05422C10.1052 7.82268 9.77438 7.77819 9.54284 7.95493C9.3113 8.13167 9.26702 8.4625 9.44355 8.69424C10.6721 10.3033 12.746 11.8449 15.3585 14.1094Z" fill="#1B1C1E"/>
<path d="M8.91211 5.96417C8.62104 5.96417 8.38477 6.20045 8.38477 6.49151C8.38477 6.78258 8.62104 7.01885 8.91211 7.01885C9.20318 7.01885 9.43946 6.78258 9.43946 6.49151C9.43946 6.20045 9.20318 5.96417 8.91211 5.96417Z" fill="#1B1C1E"/>
</g>
<defs>
<clipPath id="clip0">
<rect width="27" height="27" fill="white"/>
</clipPath>
</defs>
</svg>
