<svg width="19" height="19" viewBox="0 0 19 19" fill="none" xmlns="http://www.w3.org/2000/svg">
<g clip-path="url(#clip0)">
<path d="M4.14969 5.20221L4.14498 5.20095C2.49319 6.84409 2.485 9.5148 4.12665 11.1681C5.76935 12.8225 8.44214 12.8319 10.0965 11.1892C11.7509 9.54647 11.7603 6.87368 10.1176 5.21932C8.47398 3.5674 5.80273 3.55975 4.14969 5.20221ZM9.75584 5.55705L9.77836 5.57993C11.2145 7.03668 11.208 9.37876 9.76366 10.8274C8.31053 12.2849 5.95096 12.2885 4.49341 10.8354C3.03586 9.38219 3.03231 7.02266 4.48544 5.56511L4.50832 5.54259L4.50675 5.54217C5.96372 4.10502 8.30704 4.11166 9.75584 5.55705Z" fill="#1B1C1E"/>
<path d="M4.26143 3.78507C1.83149 5.36518 1.14256 8.61597 2.72267 11.0459C4.30279 13.4758 7.55358 14.1648 9.98352 12.5847L13.4345 16.0533C13.8485 16.4712 14.5212 16.4797 14.9456 16.0724L14.9733 16.0445C15.3732 15.6288 15.3747 14.9719 14.9767 14.5544C14.9686 14.5446 14.9598 14.5355 14.9503 14.5271L11.5124 11.0788L11.5063 11.0704C12.653 9.32822 12.6593 7.07236 11.5223 5.32382C9.94216 2.89388 6.69136 2.20496 4.26143 3.78507ZM14.6093 14.9007L14.6089 14.9022C14.8323 15.1303 14.8306 15.4957 14.605 15.7217C14.3769 15.9451 14.0114 15.9434 13.7855 15.7177L10.3865 12.3068C10.5117 12.2106 10.7217 12.0243 10.8272 11.9195C10.9328 11.8147 11.1751 11.5392 11.2158 11.4878L14.6093 14.9007ZM11.8837 8.20293C11.8787 9.18934 11.5694 10.1502 10.9982 10.9544C10.843 11.1719 10.6695 11.3756 10.4795 11.5635C10.2929 11.7546 10.0882 11.9272 9.86809 12.0786C9.06329 12.6459 8.10221 12.9493 7.11757 12.947C4.4914 12.9409 2.36739 10.807 2.3735 8.18084C2.3796 5.55467 4.51349 3.43066 7.13966 3.43677C9.76583 3.44287 11.8898 5.57676 11.8837 8.20293Z" fill="#1B1C1E"/>
</g>
<defs>
<clipPath id="clip0">
<rect width="15" height="15" fill="white" transform="translate(0 14.4889) rotate(-75)"/>
</clipPath>
</defs>
</svg>
