<svg width="27" height="26" viewBox="0 0 27 26" fill="none" xmlns="http://www.w3.org/2000/svg">
<path d="M26.7958 0.0966036C26.6677 0.00076326 26.5027 -0.0262555 26.3535 0.0267626L17.6497 3.03962L9.43969 1.0336C9.41907 1.0285 9.39895 1.03563 9.37833 1.0336C9.3258 1.02799 9.27327 1.02085 9.22075 1.03258L0.384382 3.07173C0.160036 3.12373 0 3.3302 0 3.56929V25.4902C0 25.6452 0.0677455 25.791 0.184091 25.8878C0.271964 25.9613 0.380455 26 0.490909 26C0.526255 26 0.562091 25.9959 0.597436 25.9883L9.33906 23.971L17.5873 25.4826C17.6158 25.4882 17.6443 25.4907 17.6727 25.4907C17.7321 25.4907 17.7905 25.4785 17.8455 25.4571L17.8504 25.4561L26.6868 21.8875C26.8758 21.8106 27 21.6219 27 21.4119V0.510552C27 0.3464 26.9244 0.192954 26.7958 0.0966036ZM0.981818 3.97763L8.83636 2.16533V23.0417L0.981818 24.8545V3.97763ZM9.81818 2.17348L17.1818 3.97253V24.3722L9.81818 23.0233V2.17348ZM26.0182 21.0632L18.1636 24.2351V3.93633L26.0182 1.21763V21.0632Z" fill="#1B1C1E"/>
</svg>
