<svg width="24" height="24" viewBox="0 0 24 24" fill="none" xmlns="http://www.w3.org/2000/svg">
<path d="M21.3024 7.44324H15.7344C15.5398 7.44324 15.3822 7.60052 15.3822 7.7948C15.3822 7.98889 15.5398 8.14636 15.7344 8.14636H21.3025C21.4205 8.14636 21.5165 8.24213 21.5165 8.35986V9.61963H14.7901V2.15131C14.7901 0.965149 13.8231 0 12.6346 0C12.4401 0 12.2824 0.157471 12.2824 0.351562C12.2824 0.545654 12.4401 0.703125 12.6346 0.703125C13.4347 0.703125 14.0856 1.35278 14.0856 2.15131V2.57959H2.51309V2.15131C2.51309 1.35278 3.16402 0.703125 3.96411 0.703125H11.1695C11.3641 0.703125 11.5217 0.545654 11.5217 0.351562C11.5217 0.157471 11.3641 0 11.1695 0H3.96411C2.77563 0 1.80859 0.965149 1.80859 2.15131V18.5436C1.80859 19.7298 2.77563 20.6949 3.96411 20.6949H11.7804V23.0834C11.7804 23.5887 12.1925 24 12.6988 24H21.3029C21.8091 24 22.221 23.5891 22.221 23.0839V8.35986C22.221 7.85431 21.8089 7.44324 21.3024 7.44324ZM2.51309 18.5436V3.28271H14.0856V17.3047H3.61076C3.41629 17.3047 3.25851 17.462 3.25851 17.6563C3.25851 17.8504 3.41629 18.0079 3.61076 18.0079H14.0856V18.5436C14.0856 19.3422 13.4347 19.9918 12.6346 19.9918H3.96411C3.16402 19.9918 2.51309 19.3422 2.51309 18.5436ZM12.6346 20.6949C13.8233 20.6949 14.7901 19.7298 14.7901 18.5436V10.3228H21.5165V21.1203H12.4849V20.6949H12.6346ZM12.4849 23.0834V21.8234H16.6484V23.2969H12.6988C12.5809 23.2969 12.4849 23.2011 12.4849 23.0834ZM21.3029 23.2969H17.3529V21.8234H21.5163V23.0839C21.5165 23.2013 21.4207 23.2969 21.3029 23.2969Z" fill="#1B1C1E"/>
<path d="M8.29275 18.2974C7.89059 18.2974 7.56348 18.6239 7.56348 19.0251C7.56348 19.4265 7.89059 19.7529 8.29275 19.7529C8.69472 19.7529 9.02183 19.4265 9.02183 19.0251C9.02183 18.6239 8.69472 18.2974 8.29275 18.2974ZM8.29275 19.0498C8.27917 19.0498 8.26798 19.0388 8.26798 19.0253C8.26798 19.0117 8.27917 19.0005 8.29275 19.0005C8.30632 19.0005 8.31733 19.0117 8.31733 19.0253C8.31733 19.0388 8.30632 19.0498 8.29275 19.0498Z" fill="#1B1C1E"/>
</svg>
