<svg width="26" height="27" viewBox="0 0 26 27" fill="none" xmlns="http://www.w3.org/2000/svg">
<path d="M12.9041 13.5348C5.78888 13.5348 0 19.3237 0 26.4389C0 26.7486 0.251368 27 0.561068 27C0.870768 27 1.12214 26.7486 1.12214 26.4389C1.12214 19.942 6.40723 14.6569 12.9042 14.6569C19.4012 14.6569 24.6862 19.942 24.6862 26.4389C24.6862 26.7486 24.9376 27 25.2473 27C25.557 27 25.8084 26.7486 25.8084 26.4389C25.8083 19.3226 20.0194 13.5348 12.9041 13.5348Z" fill="#1B1C1E"/>
<path d="M12.904 0C9.50173 0 6.73242 2.7682 6.73242 6.17154C6.73242 9.57487 9.50178 12.3431 12.904 12.3431C16.3061 12.3431 19.0755 9.57487 19.0755 6.17154C19.0755 2.7682 16.3062 0 12.904 0ZM12.904 11.221C10.12 11.221 7.8545 8.95547 7.8545 6.17154C7.8545 3.3876 10.12 1.12208 12.904 1.12208C15.6879 1.12208 17.9534 3.3876 17.9534 6.17154C17.9534 8.95547 15.6879 11.221 12.904 11.221Z" fill="#1B1C1E"/>
</svg>
